HIERARCHY
ROOT joint_Root
{
	OFFSET 0.0 0.0 0.0
	CHANNELS 6 Xposition Yposition Zposition Zrotation Xrotation Yrotation 
	JOINT Hips
	{
		OFFSET -17.1583 93.1646 452.98
		CHANNELS 6 Xposition Yposition Zposition Zrotation Xrotation Yrotation 
		JOINT Spine
		{
			OFFSET 15.7357 0.0 0.0
			CHANNELS 6 Xposition Yposition Zposition Zrotation Xrotation Yrotation 
			JOINT Chest
			{
				OFFSET 8.98455 -0.406207 0.0
				CHANNELS 6 Xposition Yposition Zposition Zrotation Xrotation Yrotation 
				JOINT Neck
				{
					OFFSET 16.3773 0.0 0.0
					CHANNELS 6 Xposition Yposition Zposition Zrotation Xrotation Yrotation 
					JOINT Head
					{
						OFFSET 6.45672 0.0 0.0
						CHANNELS 6 Xposition Yposition Zposition Zrotation Xrotation Yrotation 
						End Site
						{
							OFFSET 0.0 0.0 0.0
						}
					}
				}
				JOINT Shoulder_L
				{
					OFFSET 12.9942 -0.242716 4.98039
					CHANNELS 6 Xposition Yposition Zposition Zrotation Xrotation Yrotation 
					JOINT UpperArm_L
					{
						OFFSET 5.34809 0.0 0.0
						CHANNELS 6 Xposition Yposition Zposition Zrotation Xrotation Yrotation 
						JOINT LowerArm_L
						{
							OFFSET 24.3286 1.87007e-05 0.0
							CHANNELS 6 Xposition Yposition Zposition Zrotation Xrotation Yrotation 
							JOINT Hand_L
							{
								OFFSET 22.2916 0.0 0.0
								CHANNELS 6 Xposition Yposition Zposition Zrotation Xrotation Yrotation 
								End Site
								{
									OFFSET 0.0 0.0 0.0
								}
							}
						}
					}
				}
				JOINT Shoulder_R
				{
					OFFSET 12.9945 -0.242716 -4.98039
					CHANNELS 6 Xposition Yposition Zposition Zrotation Xrotation Yrotation 
					JOINT UpperArm_R
					{
						OFFSET -5.34813 0.0 0.0
						CHANNELS 6 Xposition Yposition Zposition Zrotation Xrotation Yrotation 
						JOINT LowerArm_R
						{
							OFFSET -24.3289 0.000322201 0.0
							CHANNELS 6 Xposition Yposition Zposition Zrotation Xrotation Yrotation 
							JOINT Hand_R
							{
								OFFSET -22.2915 -0.000108084 0.0
								CHANNELS 6 Xposition Yposition Zposition Zrotation Xrotation Yrotation 
								End Site
								{
									OFFSET 0.0 0.0 0.0
								}
							}
						}
					}
				}
			}
		}
		JOINT UpperLeg_L
		{
			OFFSET -2.19248 -6.46944 0.0
			CHANNELS 6 Xposition Yposition Zposition Zrotation Xrotation Yrotation 
			JOINT LowerLeg_L
			{
				OFFSET 39.0811 0.0 -1.23785e-05
				CHANNELS 6 Xposition Yposition Zposition Zrotation Xrotation Yrotation 
				JOINT Foot_L
				{
					OFFSET 40.9854 0.0 -1.26872e-05
					CHANNELS 6 Xposition Yposition Zposition Zrotation Xrotation Yrotation 
					JOINT Toes_L
					{
						OFFSET 11.7543 0.0 0.0
						CHANNELS 6 Xposition Yposition Zposition Zrotation Xrotation Yrotation 
						End Site
						{
							OFFSET 0.0 0.0 0.0
						}
					}
				}
			}
		}
		JOINT UpperLeg_R
		{
			OFFSET -2.19251 6.46944 0.0
			CHANNELS 6 Xposition Yposition Zposition Zrotation Xrotation Yrotation 
			JOINT LowerLeg_R
			{
				OFFSET -39.0811 -0.00228153 -0.0401928
				CHANNELS 6 Xposition Yposition Zposition Zrotation Xrotation Yrotation 
				JOINT Foot_R
				{
					OFFSET -40.9854 0.0 0.0
					CHANNELS 6 Xposition Yposition Zposition Zrotation Xrotation Yrotation 
					JOINT Toes_R
					{
						OFFSET -11.7543 0.0 0.0
						CHANNELS 6 Xposition Yposition Zposition Zrotation Xrotation Yrotation 
						End Site
						{
							OFFSET 0.0 0.0 0.0
						}
					}
				}
			}
		}
	}
}
MOTION
Frames:	4
Frame Time:	0.0333333
0.000000 0.000000 0.000000 0.000000 0.000000 -0.000000 1.019090 92.688000 0.417240 88.151500 -2.086660 5.406730 15.735700 0.000005 -0.000001 113.478000 85.901200 -113.370000 8.984550 -0.406207 -0.000000 -0.249318 3.257590 0.223694 16.377300 -0.000001 -0.000001 0.450213 1.539200 0.519524 6.456720 -0.000001 -0.000000 3.950550 1.160430 9.081100 12.994200 -0.242716 4.980390 -92.066900 6.471550 -72.244600 5.348090 -0.000007 -0.000001 -71.022100 24.681700 -4.305450 24.328600 0.000019 0.000005 8.751180 26.567800 -18.992500 22.291600 -0.000001 0.000005 -4.325280 5.029190 6.692280 12.994500 -0.242716 -4.980390 88.675000 5.100830 -75.417400 -5.348130 -0.000001 -0.000004 -72.792600 28.897900 -3.036000 -24.328900 0.000322 -0.000009 0.523486 1.974270 -14.882100 -22.291500 -0.000108 -0.000004 2.157300 5.251970 1.380830 -2.192480 -6.469440 -0.000000 -174.114000 -4.636830 2.334060 39.081100 -0.000007 -0.000012 0.023263 -0.067579 18.995600 40.985400 -0.000006 -0.000013 0.271059 11.482100 -70.223800 11.754300 -0.000000 0.000003 -0.001071 0.184045 -9.110950 -2.192510 6.469440 -0.000001 175.413000 2.951250 -175.618000 -39.081100 -0.002282 -0.040193 0.019703 -0.064548 14.231900 -40.985400 0.000008 0.000006 -6.181680 8.444010 -68.646100 -11.754300 -0.000006 -0.000006 -0.010399 0.274263 -5.429980
0.000000 0.000000 0.000000 0.000000 0.000000 -0.000000 1.012170 92.712300 0.367793 88.182600 -2.145770 5.075370 15.735700 0.000005 -0.000001 114.301000 85.890100 -114.048000 8.984550 -0.406207 -0.000000 -0.281175 3.364160 0.514175 16.377300 -0.000001 -0.000001 -0.128909 1.407590 0.797120 6.456720 -0.000001 -0.000000 3.390890 1.047550 9.119500 12.994200 -0.242716 4.980390 -92.069500 6.472010 -72.225500 5.348090 -0.000007 -0.000001 -70.959900 23.406000 -4.927880 24.328600 0.000019 0.000005 8.705630 27.764300 -18.196000 22.291600 -0.000001 0.000005 -4.605230 5.032300 6.624710 12.994500 -0.242716 -4.980390 88.736000 4.903590 -75.526200 -5.348130 -0.000001 -0.000004 -72.743700 28.811600 -3.266760 -24.328900 0.000322 -0.000009 0.517435 1.939470 -14.970100 -22.291500 -0.000108 -0.000004 2.149820 5.252560 1.364970 -2.192480 -6.469440 -0.000000 -174.173000 -4.679280 2.058170 39.081100 -0.000007 -0.000012 0.023940 -0.070231 18.823000 40.985400 -0.000006 -0.000013 0.230523 11.424400 -70.132300 11.754300 -0.000000 0.000003 -0.000993 0.182939 -9.155900 -2.192510 6.469440 -0.000001 175.419000 2.895720 -175.951000 -39.081100 -0.002282 -0.040193 0.020395 -0.067805 14.125000 -40.985400 0.000008 0.000006 -6.216620 8.424210 -68.570800 -11.754300 -0.000006 -0.000006 -0.010359 0.273971 -5.441950
0.000000 0.000000 0.000000 0.000000 0.000000 -0.000000 1.011760 92.742200 0.327833 88.238400 -2.165700 4.807100 15.735700 0.000005 -0.000001 114.446000 85.880200 -113.983000 8.984550 -0.406207 -0.000000 -0.277726 3.376540 0.933969 16.377300 -0.000001 -0.000001 -0.680064 1.331930 1.079920 6.456720 -0.000001 -0.000000 2.748820 1.034860 9.133980 12.994200 -0.242716 4.980390 -92.068000 6.464550 -72.218000 5.348090 -0.000007 -0.000001 -70.923400 20.866500 -5.758000 24.328600 0.000019 0.000005 8.283300 28.778400 -16.826000 22.291600 -0.000001 0.000005 -5.808220 5.052720 6.173390 12.994500 -0.242716 -4.980390 88.808300 4.656790 -75.628900 -5.348130 -0.000001 -0.000004 -72.671100 28.368500 -3.574690 -24.328900 0.000322 -0.000009 0.470723 1.776680 -14.873300 -22.291500 -0.000108 -0.000004 2.408540 5.252600 1.363980 -2.192480 -6.469440 -0.000000 -174.245000 -4.727030 1.889500 39.081100 -0.000007 -0.000012 0.023977 -0.071354 18.574200 40.985400 -0.000006 -0.000013 0.204654 11.464200 -70.050900 11.754300 -0.000000 0.000003 -0.000963 0.182511 -9.173290 -2.192510 6.469440 -0.000001 175.384000 2.828920 -176.182000 -39.081100 -0.002282 -0.040193 0.019472 -0.064914 13.962800 -40.985400 0.000008 0.000006 -6.373950 8.350490 -68.428900 -11.754300 -0.000006 -0.000006 -0.010641 0.276033 -5.357560
0.000000 0.000000 0.000000 0.000000 0.000000 -0.000000 0.992573 92.770700 0.260517 88.316200 -2.095570 4.487600 15.735700 0.000005 -0.000001 114.293000 85.901400 -113.594000 8.984550 -0.406207 -0.000000 -0.313818 3.322320 1.406640 16.377300 -0.000001 -0.000001 -1.342170 1.255660 1.407320 6.456720 -0.000001 -0.000000 2.229310 1.081530 9.290380 12.994200 -0.242716 4.980390 -92.074200 6.474090 -72.192700 5.348090 -0.000007 -0.000001 -70.367500 17.414600 -7.035950 24.328600 0.000019 0.000005 7.672480 30.025700 -15.068400 22.291600 -0.000001 0.000005 -8.421540 5.110190 4.859160 12.994500 -0.242716 -4.980390 88.846600 4.512200 -75.645600 -5.348130 -0.000001 -0.000004 -72.450400 27.832100 -3.948630 -24.328900 0.000322 -0.000009 0.379096 1.459990 -14.596600 -22.291500 -0.000108 -0.000004 2.567220 5.253550 1.338430 -2.192480 -6.469440 -0.000000 -174.323000 -4.844720 1.623650 39.081100 -0.000007 -0.000012 0.024427 -0.073597 18.361300 40.985400 -0.000006 -0.000013 0.180884 11.583600 -70.005800 11.754300 -0.000000 0.000003 -0.001102 0.184470 -9.093660 -2.192510 6.469440 -0.000001 175.364000 2.786050 -176.481000 -39.081100 -0.002282 -0.040193 0.021166 -0.072402 13.837200 -40.985400 0.000008 0.000006 -6.278990 8.201000 -68.408500 -11.754300 -0.000006 -0.000006 -0.010563 0.275462 -5.380950
